<svg width="512" height="512" viewBox="0 0 512 512" fill="none" xmlns="http://www.w3.org/2000/svg">
<g clip-path="url(#clip0_3_2)">
<path d="M425.579 118.101L351.253 43.7333C337.415 29.8269 320.957 18.8017 302.831 11.2951C284.706 3.78853 265.272 -0.0505062 245.653 -1.1835e-05H149.333C121.054 0.0338625 93.9425 11.2828 73.946 31.2793C53.9494 51.2759 42.7005 78.3873 42.6666 106.667V405.333C42.7005 433.613 53.9494 460.724 73.946 480.721C93.9425 500.717 121.054 511.966 149.333 512H362.667C390.946 511.966 418.057 500.717 438.054 480.721C458.051 460.724 469.299 433.613 469.333 405.333V223.68C469.386 204.062 465.546 184.629 458.036 166.506C450.525 148.383 439.493 131.93 425.579 118.101V118.101ZM395.413 148.267C401.928 154.968 407.53 162.5 412.075 170.667H320C314.342 170.667 308.916 168.419 304.915 164.418C300.914 160.417 298.667 154.991 298.667 149.333V57.2587C306.836 61.801 314.374 67.3954 321.088 73.8987L395.413 148.267ZM426.667 405.333C426.667 422.307 419.924 438.586 407.921 450.588C395.919 462.591 379.64 469.333 362.667 469.333H149.333C132.359 469.333 116.081 462.591 104.078 450.588C92.0761 438.586 85.3333 422.307 85.3333 405.333V106.667C85.3333 89.6928 92.0761 73.4142 104.078 61.4118C116.081 49.4095 132.359 42.6667 149.333 42.6667H245.653C249.152 42.6667 252.544 43.3493 256 43.6693V149.333C256 166.307 262.743 182.586 274.745 194.588C286.747 206.59 303.026 213.333 320 213.333H425.664C425.984 216.789 426.667 220.16 426.667 223.68V405.333Z" fill="black"/>
<path d="M266.367 263.241C267.948 258.894 272.079 256 276.705 256H283.295C290.929 256 296.242 263.585 293.633 270.759L245.633 402.759C244.052 407.106 239.921 410 235.295 410H228.705C221.071 410 215.758 402.415 218.367 395.241L266.367 263.241Z" fill="black"/>
<path fill-rule="evenodd" clip-rule="evenodd" d="M400.5 333V339.213C400.5 342.419 398.586 345.316 395.637 346.573L320.137 378.753C314.86 381.002 309 377.13 309 371.394V360.482C309 356.935 311.335 353.811 314.737 352.808L360.398 339.344C363.707 338.368 365.582 335.793 366.03 333H400.5Z" fill="black"/>
<path fill-rule="evenodd" clip-rule="evenodd" d="M400.5 333.402V327.189C400.5 323.983 398.586 321.087 395.637 319.829L320.137 287.649C314.86 285.4 309 289.272 309 295.009V305.921C309 309.468 311.335 312.591 314.737 313.594L360.398 327.058C363.707 328.034 365.582 330.61 366.03 333.402H400.5Z" fill="black"/>
<path fill-rule="evenodd" clip-rule="evenodd" d="M112 333V339.213C112 342.419 113.914 345.316 116.863 346.573L192.363 378.753C197.64 381.002 203.5 377.13 203.5 371.394V360.482C203.5 356.935 201.165 353.811 197.763 352.808L152.102 339.344C148.793 338.368 146.918 335.793 146.47 333H112Z" fill="black"/>
<path fill-rule="evenodd" clip-rule="evenodd" d="M112 333.402V327.189C112 323.983 113.914 321.087 116.863 319.829L192.363 287.649C197.64 285.4 203.5 289.272 203.5 295.009V305.921C203.5 309.468 201.165 312.591 197.763 313.594L152.102 327.058C148.793 328.034 146.918 330.61 146.47 333.402H112Z" fill="black"/>
</g>
<defs>
<clipPath id="clip0_3_2">
<rect width="512" height="512" fill="white"/>
</clipPath>
</defs>
</svg>
