<svg width="512" height="512" viewBox="0 0 512 512" fill="none" xmlns="http://www.w3.org/2000/svg">
<g clip-path="url(#clip0_3_2)">
<path d="M425.579 118.101L351.253 43.7333C337.415 29.8269 320.957 18.8017 302.831 11.2951C284.706 3.78853 265.272 -0.0505062 245.653 -1.1835e-05H149.333C121.054 0.0338625 93.9425 11.2828 73.946 31.2793C53.9494 51.2759 42.7005 78.3873 42.6666 106.667V405.333C42.7005 433.613 53.9494 460.724 73.946 480.721C93.9425 500.717 121.054 511.966 149.333 512H362.667C390.946 511.966 418.057 500.717 438.054 480.721C458.051 460.724 469.299 433.613 469.333 405.333V223.68C469.386 204.062 465.546 184.629 458.036 166.506C450.525 148.383 439.493 131.93 425.579 118.101V118.101ZM395.413 148.267C401.928 154.968 407.53 162.5 412.075 170.667H320C314.342 170.667 308.916 168.419 304.915 164.418C300.914 160.417 298.667 154.991 298.667 149.333V57.2587C306.836 61.801 314.374 67.3954 321.088 73.8987L395.413 148.267ZM426.667 405.333C426.667 422.307 419.924 438.586 407.921 450.588C395.919 462.591 379.64 469.333 362.667 469.333H149.333C132.359 469.333 116.081 462.591 104.078 450.588C92.0761 438.586 85.3333 422.307 85.3333 405.333V106.667C85.3333 89.6928 92.0761 73.4142 104.078 61.4118C116.081 49.4095 132.359 42.6667 149.333 42.6667H245.653C249.152 42.6667 252.544 43.3493 256 43.6693V149.333C256 166.307 262.743 182.586 274.745 194.588C286.747 206.59 303.026 213.333 320 213.333H425.664C425.984 216.789 426.667 220.16 426.667 223.68V405.333Z" fill="black"/>
<path d="M346 325C353.318 325 360.471 322.83 366.556 318.764C372.641 314.699 377.383 308.92 380.184 302.159C382.984 295.398 383.717 287.959 382.289 280.782C380.861 273.604 377.337 267.012 372.163 261.837C366.988 256.663 360.396 253.139 353.218 251.711C346.041 250.283 338.602 251.016 331.841 253.816C325.08 256.617 319.301 261.359 315.236 267.444C311.17 273.529 309 280.682 309 288C309 297.813 312.898 307.224 319.837 314.163C326.776 321.102 336.187 325 346 325V325ZM346 272.143C349.136 272.143 352.202 273.073 354.81 274.815C357.417 276.558 359.45 279.034 360.65 281.932C361.85 284.829 362.164 288.018 361.552 291.094C360.941 294.17 359.43 296.995 357.213 299.213C354.995 301.43 352.17 302.941 349.094 303.552C346.018 304.164 342.829 303.85 339.932 302.65C337.034 301.45 334.558 299.417 332.815 296.81C331.073 294.202 330.143 291.136 330.143 288C330.143 283.794 331.814 279.761 334.787 276.787C337.761 273.814 341.794 272.143 346 272.143V272.143Z" fill="black"/>
<path d="M260.485 314.596L427 480.955L402.779 505L234.77 340.268C229.707 335.207 223.696 331.192 217.079 328.453C210.463 325.713 203.37 324.303 196.208 324.303L174.912 328.453L157.646 340.268L69 428.831V377.487L131.968 314.596C140.406 306.164 150.423 299.476 161.449 294.912C172.475 290.349 184.292 288 196.226 288C208.161 288 219.978 290.349 231.004 294.912C242.029 299.476 252.047 306.164 260.485 314.596Z" fill="black"/>
</g>
<defs>
<clipPath id="clip0_3_2">
<rect width="512" height="512" fill="white"/>
</clipPath>
</defs>
</svg>
