<svg width="512" height="512" viewBox="0 0 512 512" fill="none" xmlns="http://www.w3.org/2000/svg">
<g clip-path="url(#clip0_1_2)">
<path d="M265.36 398.363L225.771 437.952C205.566 457.616 178.432 468.535 150.239 468.346C122.046 468.157 95.0602 456.876 75.1213 436.942C55.1823 417.009 43.8932 390.027 43.6963 361.834C43.4994 333.64 54.4107 306.503 74.0693 286.293L113.659 246.64C117.659 242.637 119.905 237.209 119.903 231.55C119.901 225.891 117.651 220.464 113.648 216.464C109.645 212.464 104.217 210.218 98.5578 210.22C92.8987 210.222 87.4721 212.472 83.472 216.475L43.904 256.128C15.7925 284.254 0.00516975 322.395 0.015172 362.16C0.0251742 401.926 15.8316 440.059 43.9573 468.171C72.083 496.282 110.224 512.069 149.99 512.059C189.755 512.049 227.888 496.243 256 468.117L295.589 428.528C299.475 424.504 301.626 419.116 301.577 413.522C301.528 407.929 299.285 402.578 295.329 398.623C291.374 394.667 286.023 392.424 280.43 392.375C274.836 392.326 269.447 394.477 265.424 398.363H265.36Z" fill="#F45A03"/>
<path d="M468.139 43.968C454.257 29.9907 437.739 18.9073 419.543 11.3599C401.346 3.81256 381.833 -0.0486565 362.133 6.87066e-06C342.444 -0.0522967 322.94 3.79901 304.748 11.3312C286.557 18.8635 270.039 29.9272 256.149 43.8827L216.453 83.4933C212.45 87.4935 210.2 92.92 210.198 98.5791C210.196 104.238 212.443 109.666 216.443 113.669C220.443 117.672 225.869 119.922 231.528 119.924C237.188 119.926 242.616 117.68 246.619 113.68L286.272 74.0907C296.204 64.0992 308.019 56.1771 321.033 50.7831C334.048 45.3892 348.003 42.6304 362.091 42.6667C383.302 42.6737 404.034 48.9692 421.668 60.7573C439.301 72.5455 453.044 89.297 461.159 108.894C469.274 128.492 471.396 150.055 467.258 170.858C463.12 191.661 452.906 210.771 437.909 225.771L398.32 265.36C394.317 269.363 392.068 274.792 392.068 280.453C392.068 286.114 394.317 291.544 398.32 295.547C402.323 299.55 407.752 301.799 413.413 301.799C419.074 301.799 424.504 299.55 428.507 295.547L468.096 256C496.172 227.863 511.943 189.741 511.951 149.993C511.959 110.245 496.203 72.1159 468.139 43.968Z" fill="#F45A03"/>
<path d="M294.917 186.917L186.917 294.917C184.88 296.885 183.255 299.239 182.136 301.842C181.018 304.445 180.43 307.244 180.405 310.077C180.381 312.909 180.92 315.719 181.993 318.34C183.066 320.962 184.65 323.344 186.653 325.347C188.656 327.35 191.038 328.934 193.66 330.007C196.281 331.08 199.091 331.619 201.923 331.595C204.756 331.57 207.555 330.982 210.158 329.864C212.761 328.745 215.115 327.12 217.083 325.083L325.083 217.083C328.969 213.059 331.119 207.67 331.07 202.077C331.022 196.483 328.778 191.133 324.823 187.177C320.867 183.222 315.517 180.978 309.923 180.93C304.33 180.881 298.941 183.031 294.917 186.917Z" fill="#F45A03"/>
<path d="M91.28 158.043L25.4147 127.457C24.2054 126.87 22.8653 126.516 21.4726 126.417C20.0799 126.317 18.6624 126.474 17.303 126.877C15.9435 127.281 14.6693 127.923 13.5546 128.767C12.4399 129.611 11.5071 130.639 10.8107 131.792C10.1142 132.944 9.66797 134.199 9.49806 135.481C9.32814 136.764 9.43791 138.049 9.82099 139.261C10.2041 140.474 10.8528 141.59 11.7292 142.544C12.6057 143.498 13.6924 144.271 14.9259 144.818L80.7912 175.404C83.227 176.485 86.0889 176.62 88.7607 175.782C91.4324 174.943 93.7001 173.198 95.0755 170.921C96.4508 168.645 96.8236 166.02 96.1137 163.611C95.4038 161.202 93.6679 159.203 91.28 158.043Z" fill="#F45A03"/>
<path d="M184.509 77.1734L155.96 10.4003C155.453 9.15527 154.692 7.99645 153.723 6.99149C152.754 5.98653 151.595 5.15554 150.314 4.54702C149.033 3.9385 147.656 3.56463 146.263 3.44722C144.87 3.32982 143.489 3.47123 142.2 3.8632C140.911 4.25518 139.741 4.88987 138.758 5.73024C137.774 6.57061 136.997 7.59983 136.471 8.75785C135.946 9.91588 135.682 11.1795 135.697 12.475C135.711 13.7705 136.002 15.0719 136.554 16.3034L165.104 83.0765C166.193 85.5081 168.231 87.5219 170.779 88.684C173.327 89.846 176.18 90.0635 178.725 89.2894C181.269 88.5154 183.301 86.8119 184.383 84.5457C185.465 82.2795 185.51 79.632 184.509 77.1734Z" fill="#F45A03"/>
<path d="M126.098 98.698L74.3304 47.7687C73.3885 46.8094 72.2451 46.0262 70.9667 45.4646C69.6883 44.903 68.3007 44.5744 66.8847 44.4979C65.4687 44.4213 64.0527 44.5985 62.7194 45.0189C61.3861 45.4393 60.1622 46.0946 59.119 46.9465C58.0758 47.7985 57.2343 48.83 56.6435 49.9809C56.0527 51.1319 55.7246 52.3792 55.6782 53.65C55.6317 54.9209 55.868 56.1898 56.3731 57.3829C56.8783 58.5759 57.6422 59.6692 58.6203 60.5988L110.388 111.528C112.32 113.364 114.97 114.453 117.768 114.56C120.566 114.668 123.288 113.785 125.348 112.103C127.408 110.421 128.641 108.073 128.781 105.566C128.922 103.059 127.958 100.592 126.098 98.698Z" fill="#F45A03"/>
<path d="M426.999 353.002L493.485 382.213C494.706 382.775 496.053 383.101 497.448 383.172C498.842 383.243 500.256 383.057 501.607 382.625C502.958 382.193 504.218 381.525 505.315 380.658C506.412 379.791 507.324 378.744 507.996 377.577C508.668 376.41 509.088 375.147 509.232 373.861C509.375 372.575 509.238 371.293 508.83 370.088C508.422 368.884 507.75 367.782 506.854 366.846C505.958 365.91 504.856 365.16 503.611 364.638L437.125 335.427C434.667 334.397 431.803 334.321 429.149 335.215C426.496 336.109 424.265 337.901 422.937 340.205C421.609 342.51 421.291 345.142 422.051 347.536C422.81 349.929 424.587 351.892 426.999 353.002Z" fill="#F45A03"/>
<path d="M335.469 435.79L365.399 501.956C365.931 503.19 366.716 504.333 367.706 505.317C368.696 506.302 369.871 507.109 371.165 507.691C372.458 508.272 373.843 508.618 375.238 508.706C376.633 508.794 378.011 508.624 379.291 508.206C380.571 507.787 381.728 507.128 382.694 506.268C383.66 505.407 384.415 504.362 384.917 503.193C385.418 502.025 385.655 500.756 385.614 499.461C385.573 498.166 385.255 496.871 384.677 495.651L354.748 429.485C353.608 427.077 351.528 425.106 348.957 423.997C346.386 422.888 343.528 422.73 341.001 423.556C338.473 424.383 336.476 426.128 335.442 428.416C334.407 430.705 334.417 433.352 335.469 435.79Z" fill="#F45A03"/>
<path d="M393.42 413.057L446.234 462.901C447.196 463.84 448.355 464.599 449.645 465.134C450.935 465.669 452.329 465.969 453.746 466.016C455.164 466.063 456.576 465.857 457.9 465.409C459.224 464.961 460.434 464.28 461.46 463.407C462.485 462.533 463.305 461.485 463.872 460.322C464.438 459.159 464.74 457.905 464.76 456.633C464.781 455.362 464.518 454.098 463.988 452.916C463.458 451.733 462.672 450.656 461.675 449.747L408.861 399.904C406.891 398.108 404.219 397.075 401.419 397.025C398.62 396.976 395.916 397.915 393.892 399.639C391.867 401.364 390.683 403.737 390.595 406.246C390.507 408.756 391.521 411.202 393.42 413.057Z" fill="#F45A03"/>
</g>
<defs>
<clipPath id="clip0_1_2">
<rect width="512" height="512" fill="white"/>
</clipPath>
</defs>
</svg>
